M48
;DRILL file {KiCad (5.0.0)} date 09/20/18 15:45:27
;FORMAT={-:-/ absolute / inch / decimal}
FMAT,2
INCH,TZ
T1C0.0276
T2C0.0315
T3C0.0402
T4C0.0433
T5C0.0433
%
G90
G05
M72
T1
X2.3Y-1.1
X2.5Y-1.1
T2
X2.5Y-1.75
X2.5984Y-1.75
X2.Y-1.25
X2.Y-1.55
X2.1Y-1.25
X2.1Y-1.55
X2.2Y-1.25
X2.2Y-1.55
X2.3Y-1.25
X2.3Y-1.55
X2.4Y-1.25
X2.4Y-1.55
X2.5Y-1.25
X2.5Y-1.55
X2.6Y-1.25
X2.6Y-1.55
X2.7Y-1.25
X2.7Y-1.55
X2.25Y-1.75
X2.3484Y-1.75
X1.75Y-1.75
X1.8484Y-1.75
X2.Y-1.75
X2.0984Y-1.75
X1.7Y-1.25
X1.7984Y-1.25
T3
X1.45Y-1.25
X1.45Y-1.35
X1.45Y-1.45
X1.45Y-1.55
X3.Y-1.3
X3.Y-1.4
X3.Y-1.5
T4
X1.65Y-1.05
X1.75Y-1.05
X1.85Y-1.05
T5
X1.365Y-1.35
T0
M30
